<svg class="icon" style="width: 1em; height: 1em;vertical-align: middle;fill: currentColor;overflow: hidden;" viewBox="0 0 1024 1024" version="1.1" xmlns="http://www.w3.org/2000/svg"><path d="M773.559 649.066M496.134 134.461c93.351 0 178.555 38.132 239.835 99.036 114.595 115.193 131.303 297.706 40.035 431.091-36.627 54.088-89.366 97.156-150.845 122.385L517.203 896.83c-11.575 12.328-30.364 12.328-41.939 0.576l-0.375-0.576-0.199-0.178-107.757-109.68c-61.479-25.229-114.04-68.297-151.044-122.385-90.87-133.385-74.182-315.898 40.413-431.091C317.604 172.593 402.409 134.461 496.134 134.461L496.134 134.461zM496.134 302.391 496.134 302.391c47.051 0 89.366 18.59 120.105 49.331 30.74 31.116 49.906 73.431 49.906 120.658 0 46.875-19.166 89.564-49.906 120.306-30.739 30.738-73.055 49.705-120.105 49.705-47.25 0-89.741-18.967-120.481-49.705-30.739-30.742-49.706-73.432-49.706-120.306 0-47.227 18.967-89.542 49.706-120.658C406.393 320.981 448.884 302.391 496.134 302.391L496.134 302.391zM591.187 376.95 591.187 376.95c-24.276-23.901-58.049-39.083-95.053-39.083-37.18 0-70.774 15.182-95.251 39.083-24.278 24.677-39.46 58.249-39.46 95.429 0 37.202 15.182 70.775 39.46 95.076 24.477 24.477 58.071 39.459 95.251 39.459 37.004 0 70.776-14.982 95.053-39.459 24.301-24.301 39.482-57.874 39.482-95.076C630.669 435.199 615.487 401.627 591.187 376.95L591.187 376.95zM694.03 275.436 694.03 275.436c-50.658-50.459-120.481-81.575-197.896-81.575-77.214 0-147.414 31.115-197.695 81.575-94.5 94.876-108.354 245.721-33.397 355.756 31.293 45.924 76.087 81.973 128.627 102.666 4.004 1.328 8.165 3.984 11.02 6.816l91.445 93.35 91.27-93.35 0 0.951c2.855-3.408 6.439-5.887 10.245-7.391 52.739-20.494 97.908-56.922 129.402-103.043C802.186 521.156 788.331 370.312 694.03 275.436L694.03 275.436z" /></svg>